<mxfile host="65bd71144e">
    <diagram id="XWkIPS_ae_B1x-JtRMQf" name="build">
        <mxGraphModel dx="1358" dy="529" grid="1" gridSize="10" guides="1" tooltips="1" connect="1" arrows="1" fold="1" page="1" pageScale="1" pageWidth="850" pageHeight="1100" math="0" shadow="0">
            <root>
                <mxCell id="0"/>
                <mxCell id="1" parent="0"/>
                <mxCell id="2" style="edgeStyle=none;html=1;exitX=0.5;exitY=1;exitDx=0;exitDy=0;" edge="1" parent="1" source="mkkFXAK93DBgTfqhUC4p-1" target="mkkFXAK93DBgTfqhUC4p-4">
                    <mxGeometry relative="1" as="geometry"/>
                </mxCell>
                <mxCell id="mkkFXAK93DBgTfqhUC4p-1" value="todo" style="rounded=0;whiteSpace=wrap;html=1;" parent="1" vertex="1">
                    <mxGeometry x="200" y="170" width="120" height="100" as="geometry"/>
                </mxCell>
                <mxCell id="mkkFXAK93DBgTfqhUC4p-3" style="edgeStyle=orthogonalEdgeStyle;rounded=0;orthogonalLoop=1;jettySize=auto;html=1;exitX=0.5;exitY=1;exitDx=0;exitDy=0;entryX=0.5;entryY=0;entryDx=0;entryDy=0;" parent="1" source="mkkFXAK93DBgTfqhUC4p-2" target="mkkFXAK93DBgTfqhUC4p-1" edge="1">
                    <mxGeometry relative="1" as="geometry"/>
                </mxCell>
                <mxCell id="mkkFXAK93DBgTfqhUC4p-2" value="start" style="ellipse;whiteSpace=wrap;html=1;aspect=fixed;" parent="1" vertex="1">
                    <mxGeometry x="220" y="40" width="80" height="80" as="geometry"/>
                </mxCell>
                <mxCell id="mkkFXAK93DBgTfqhUC4p-4" value="end" style="ellipse;whiteSpace=wrap;html=1;aspect=fixed;" parent="1" vertex="1">
                    <mxGeometry x="220" y="560" width="80" height="80" as="geometry"/>
                </mxCell>
            </root>
        </mxGraphModel>
    </diagram>
</mxfile>